# xmcd
#
# Track frame offsets: 
#        150
#        16881
#        36477
#        56419
#        73838
#        87211
#        125704
#        139621
#        163192
#        178969
#        196761
#        219004
#        233920
#        249975
#        277211
#        300163
#
# Disc length: 4282 seconds
#
# Revision: 0
# Processed by: cddbd v1.5.2PL0 Copyright (c) Steve Scherf et al.
# Submitted via: ExactAudioCopy v1.3
#
DISCID=e110b810
DTITLE=Zbiorowy - Wojciech Mann prezentuje Nieprzeboje Krok 2 CD 2
DYEAR=2015
DGENRE=Rock
TTITLE0=The Western Sizzlers - One More Beer
TTITLE1=Kim Simmonds and Savoy Brown - Laura Lee
TTITLE2=Carolyn Wonderland - Bad Girl Blues
TTITLE3=Dale Watson - Slow Quick Quick
TTITLE4=Kenny "Blues Boss" Wayne - Keep on Rockin`
TTITLE5=James Solberg - Ballad of a Thin Man
TTITLE6=Sass Jordan - What I Need
TTITLE7=Spin Doctors - Scotch and Water Blues
TTITLE8=Toronzo Cannon - Earnestine
TTITLE9=The Blasters - Breath of My Love
TTITLE10=Too Slim and the Taildraggers - Daddies Bones
TTITLE11=Texas Tornados - She Never Spoke Spanish to Me
TTITLE12=S.U.N. - I'm the One
TTITLE13=Federal Charm - Reconsider
TTITLE14=The Kelly Richey Band - Hey Joe
TTITLE15=Frijid Pink - House of the Rising Sun
EXTD=
EXTT0=
EXTT1=
EXTT2=
EXTT3=
EXTT4=
EXTT5=
EXTT6=
EXTT7=
EXTT8=
EXTT9=
EXTT10=
EXTT11=
EXTT12=
EXTT13=
EXTT14=
EXTT15=
PLAYORDER=
